<svg version="1" xmlns="http://www.w3.org/2000/svg" width="933.333" height="933.333" viewBox="0 0 700.000000 700.000000"><path d="M346 20.6c-5.2 2-36.8 17.5-47.5 23.4-2.7 1.5-9 5-14 7.7-4.9 2.8-12.4 6.8-16.5 9-21.4 11.6-100.6 57.5-132 76.7-34 20.6-59.1 37.4-62.7 41.8-2.7 3.2-4.3 24.3-5.9 79.3-.6 21-.6 137.7 0 162 1.4 52.2 3.1 75.6 6 80 2.6 4 25.4 19.2 63.3 42.3 26.1 15.9 73.7 43.9 83.3 49 3.6 1.9 7.2 4.1 8.1 4.8.8.8 1.8 1.4 2.1 1.4.4 0 4.6 2.3 9.5 5.1 35.6 20.6 98.1 53.5 106 55.8 3.2.9 5.3.9 8.2.1 3.9-1 43-20.5 57-28.4 4.2-2.4 11.2-6.2 15.6-8.6 4.4-2.4 9.6-5.2 11.5-6.3 3.8-2.1 70.1-40 75.3-43.1 57.3-33.6 103.6-62.8 111.2-69.9 3-2.9 3.5-4.1 4.4-11.2 1.4-10.8 2.6-32.4 3.6-70 .5-17.1.5-140.2 0-162-.9-40.6-2.6-69.3-4.5-76.7-1.5-5.5-6.9-9.6-43-32.5-9-5.7-66.1-40.1-72.5-43.7-1.6-.9-4.8-2.7-7-4-58.4-33.8-100.3-57-130-71.8-19-9.4-25.5-11.7-29.5-10.2zm25 40.7c46.7 22.9 159.4 87.8 207 119.3 20.6 13.6 21.1 14.1 22.5 21.3 3.9 20.3 5.3 191.7 2 248.8-1.3 22.4-1.5 24.6-3 31.3-.7 3.1-7.9 8.5-30 22.8-16.8 10.7-67.1 41.2-68 41.2-.3 0-2.4 1.2-4.8 2.7-2.3 1.5-5.1 3.3-6.2 3.9-1.1.6-12.3 7.1-25 14.4-12.6 7.2-25.7 14.7-29 16.5-3.3 1.8-14.1 7.7-24 13.2-21.8 12.1-51.2 27-58 29.4-4.7 1.7-5.1 1.6-10-.3-2.7-1.1-11.7-5.4-20-9.6-24-12.1-29.3-15-76-41.2-2.2-1.2-4.4-2.5-5-3-.5-.4-3.9-2.3-7.5-4.2-9.2-5-49.6-28.7-67.5-39.6-8.2-5-17.5-10.6-20.5-12.4-10.3-6-39.5-25.4-43.2-28.7-4.6-4-5.5-7.2-6.3-21.6-.4-6.1-.8-13.7-1-17-2.3-35.2-2.3-186.7 0-218 .2-3.3.7-10.3 1-15.5.3-5.2.7-10.4 1-11.5.2-1.1.4-3 .4-4.2.1-1.3 1.6-3.7 3.4-5.4 7.4-7.2 65.8-43.6 114.7-71.7 66.3-38 119.4-66.5 128.4-69.1 4.6-1.3 6.6-.6 24.6 8.2z"/><path d="M137.4 201.8c-10.4 7.3-11.5 8.5-12.2 13-1.1 7.6-.9 8.3 3.3 10.8 2.2 1.3 4.7 2.7 5.5 3.1.8.4 8.4 4.7 16.9 9.5 8.4 4.8 15.4 8.8 15.6 8.8.1 0 4.2 2.3 9.1 5.1 10.8 6.2 14.2 8.2 19.2 11 14.2 8.1 79.1 46.9 91.2 54.7 7.1 4.5 33 21.9 35.1 23.5 5.5 4.3 6.1 8.8 8.5 61.7.4 7.4.7 52.5.8 100.3l.1 86.8 7.5 3.6c10.2 5 13.9 4.9 25.6-.7l9.1-4.3-.1-74.6c0-79.6.7-117.5 2.9-149.9.9-14.1 2-18.2 5.8-21.5 9-7.9 45.8-31.1 97.7-61.7 31-18.3 89-51.6 94.7-54.4 2.1-1 2.2-1.6 1.7-7.1-.3-3.3-1.1-7.1-1.8-8.4-.6-1.3-5.3-5.3-10.4-8.8l-9.3-6.4-18.2 10.7c-26.4 15.6-33.2 19.5-39.3 22.9-2.9 1.7-5.9 3.6-6.6 4.3-.7.7-1.5 1.2-1.8 1.2-.4 0-7.2 3.7-15.1 8.1-7.9 4.5-16.4 9.3-18.9 10.7-2.5 1.4-8.7 4.9-13.8 7.8-5.2 3-9.6 5.4-9.8 5.4-.2 0-2.1 1-4.2 2.3-8.3 5.2-46.2 25.1-61.3 32.2-12.5 5.9-15.5 6.4-21.5 3.9-4.8-2-35.4-17.3-43.2-21.5-3.1-1.8-8.4-4.6-11.7-6.4-3.3-1.8-8.1-4.4-10.7-5.8-16.6-9.1-71.4-40.4-92.8-53-32.9-19.4-38.6-22.7-39.1-22.6-.2 0-4 2.6-8.5 5.7z"/></svg>